<svg width="38" height="35" viewBox="0 0 38 35" fill="none" xmlns="http://www.w3.org/2000/svg">
<path d="M17.1 26.25H20.9V22.75H17.1V26.25Z" fill="black" fill-opacity="0.54"/>
<path d="M17.1 19.25H20.9V8.75H17.1V19.25Z" fill="black" fill-opacity="0.54"/>
<path fill-rule="evenodd" clip-rule="evenodd" d="M0 17.5C0 27.16 8.51196 35 19 35C29.488 35 38 27.16 38 17.5C38 7.84 29.488 0 19 0C8.51196 0 0 7.84 0 17.5ZM3.8 17.5C3.8 9.7825 10.6209 3.5 19 3.5C27.379 3.5 34.2 9.7825 34.2 17.5C34.2 25.2175 27.379 31.5 19 31.5C10.6209 31.5 3.8 25.2175 3.8 17.5Z" fill="black" fill-opacity="0.54"/>
</svg>
